<?xml version="1.0" encoding="UTF-8" standalone="no"?>
<!-- Created with Inkscape (http://www.inkscape.org/) -->

<svg
   width="210mm"
   height="297mm"
   viewBox="0 0 210 297"
   version="1.1"
   id="svg12"
   inkscape:version="1.1.1 (3bf5ae0d25, 2021-09-20)"
   sodipodi:docname="dessin.svg"
   xmlns:inkscape="http://www.inkscape.org/namespaces/inkscape"
   xmlns:sodipodi="http://sodipodi.sourceforge.net/DTD/sodipodi-0.dtd"
   xmlns="http://www.w3.org/2000/svg"
   xmlns:svg="http://www.w3.org/2000/svg">
  <sodipodi:namedview
     id="namedview14"
     pagecolor="#505050"
     bordercolor="#eeeeee"
     borderopacity="1"
     inkscape:pageshadow="0"
     inkscape:pageopacity="0"
     inkscape:pagecheckerboard="0"
     inkscape:document-units="mm"
     showgrid="false"
     inkscape:zoom="0.76791526"
     inkscape:cx="396.52813"
     inkscape:cy="561.91096"
     inkscape:window-width="1920"
     inkscape:window-height="1051"
     inkscape:window-x="-9"
     inkscape:window-y="-9"
     inkscape:window-maximized="1"
     inkscape:current-layer="layer1" />
  <defs
     id="defs9" />
  <g
     inkscape:label="Calque 1"
     inkscape:groupmode="layer"
     id="layer1">
    <path
       style="fill:none;stroke:#000000;stroke-width:0.264583px;stroke-linecap:butt;stroke-linejoin:miter;stroke-opacity:1"
       d="m 33.076565,105.43155 v 65.46404 l 44.102088,-1.37819 c 0,0 -11.370069,63.0522 0,0 11.370069,-63.0522 5.168215,-61.32947 5.168215,-61.32947 0,0 -15.160093,-62.018557 2.411833,1.37819 17.571919,63.39675 41.690249,61.32947 41.690249,61.32947 0,0 -12.05916,51.33758 0,-0.34455 12.05917,-51.68213 -9.64733,-40.65661 -9.64733,-40.65661 0,0 5.51276,-49.61485 -0.68909,-1.72274 -6.20186,47.89211 1.03364,39.27842 1.03364,39.27842 l 29.63109,7.58005 c 0,0 11.71462,-53.06032 3.10093,-2.06729 -8.61369,50.99304 32.04292,-3.44547 32.04292,-3.44547"
       id="path225" />
  </g>
</svg>
